<svg version="1.2" xmlns="http://www.w3.org/2000/svg" xmlns:xlink="http://www.w3.org/1999/xlink" overflow="visible" preserveAspectRatio="none" viewBox="0 0 24 24" width="32" height="32"><g><path xmlns:default="http://www.w3.org/2000/svg" id="comment-o" d="M12,5.35c1.37-0.02,2.72,0.23,4,0.72c1.13,0.42,2.14,1.11,2.94,2C19.6,8.77,19.98,9.7,20,10.68  c-0.02,0.99-0.41,1.94-1.09,2.65c-0.8,0.89-1.81,1.58-2.94,2c-1.27,0.47-2.62,0.7-3.97,0.68c-0.45,0-0.9-0.03-1.35-0.08l-0.59-0.06  l-0.45,0.4C8.76,17,7.79,17.59,6.74,18.01c0.32-0.56,0.57-1.16,0.73-1.79l0.28-1L6.84,14.7c-0.83-0.45-1.54-1.07-2.1-1.83  c-0.47-0.64-0.73-1.4-0.74-2.19c0.01-1,0.4-1.95,1.09-2.67C5.89,7.14,6.89,6.47,8,6.07C9.28,5.57,10.63,5.33,12,5.35L12,5.35z   M21.33,10.68c-0.01-1.23-0.45-2.42-1.25-3.35c-0.91-1.08-2.07-1.92-3.39-2.43C15.2,4.29,13.61,3.99,12,4.01  C10.39,3.99,8.8,4.29,7.31,4.9C5.99,5.41,4.83,6.24,3.92,7.33c-0.8,0.93-1.24,2.12-1.25,3.35c0,1.05,0.33,2.07,0.94,2.93  c0.67,0.95,1.56,1.73,2.58,2.29c-0.07,0.27-0.16,0.53-0.27,0.79c-0.11,0.25-0.2,0.45-0.28,0.61c-0.1,0.18-0.21,0.36-0.34,0.53  c-0.14,0.19-0.25,0.33-0.32,0.41l-0.36,0.4L4.3,19.01L4.22,19.1l-0.07,0.09l-0.06,0.09c-0.01,0.03-0.01,0.07,0,0.1  c0.01,0.03,0.01,0.07,0,0.1c-0.02,0.04-0.02,0.08,0,0.12H4c0.02,0.11,0.08,0.21,0.17,0.29c0.08,0.07,0.18,0.11,0.28,0.11h0.06  c0.4-0.05,0.8-0.12,1.19-0.23c1.78-0.44,3.42-1.31,4.79-2.52c0.5,0.05,1.01,0.08,1.51,0.08c1.61,0.02,3.2-0.28,4.69-0.89  c1.32-0.51,2.48-1.35,3.39-2.43c0.8-0.93,1.24-2.12,1.25-3.35l0,0V10.68z" style="fill: rgb(18, 18, 18);" vector-effect="non-scaling-stroke"/></g></svg>