<svg width="335" height="335" viewBox="0 0 335 335" fill="none" xmlns="http://www.w3.org/2000/svg">
<path d="M135.439 21.5918C134.131 22.9004 134.131 23.751 134.131 85.3858V147.871L109.529 148.002L84.8623 148.198L83.5537 149.899C82.5723 151.273 82.4414 152.059 82.834 153.302C83.5537 155.265 163.836 249.68 165.668 250.661C166.388 251.054 167.696 251.185 168.547 250.988C170.248 250.53 251.185 155.984 252.166 153.302C252.559 152.059 252.428 151.208 251.446 149.899L250.138 148.198L224.162 148.002L198.252 147.871V85.5166C198.252 23.6856 198.252 23.1621 196.943 21.7227L195.569 20.2832H166.191C137.599 20.2832 136.683 20.3487 135.439 21.5918ZM189.092 91.5362C189.092 151.666 189.157 153.694 190.335 155.134L191.578 156.704L214.544 157.031L237.444 157.358L202.767 198.056C183.661 220.498 167.827 238.818 167.5 238.818C167.173 238.818 151.339 220.498 132.233 198.056L97.5557 157.358L119.147 157.031L140.805 156.704L142.048 155.134C143.226 153.694 143.291 151.666 143.291 91.5362V29.4434H166.191H189.092V91.5362Z" fill="white"/>
<path d="M30.0976 228.35C28.8545 229.593 28.7891 230.509 28.7891 258.905C28.7891 281.609 28.9853 289.003 29.7051 291.555C32.584 302.416 41.0244 310.856 52.0166 313.801C56.9238 315.109 278.142 315.109 283.114 313.801C293.845 310.922 302.416 302.351 305.295 291.555C306.015 289.003 306.211 281.609 306.211 258.905C306.211 230.509 306.146 229.593 304.902 228.35C303.659 227.106 302.743 227.041 283.376 227.041H263.093L261.784 228.742C260.476 230.378 260.41 231.294 260.41 246.474C260.41 264.14 260.214 265.252 256.288 267.607C254.26 268.916 252.362 268.916 167.631 268.916C72.0381 268.916 78.581 269.178 75.8984 264.794C74.7207 262.896 74.5898 261.392 74.5898 246.604C74.5898 231.294 74.5244 230.378 73.2158 228.742L71.9072 227.041H51.624C32.2568 227.041 31.3408 227.106 30.0976 228.35ZM65.4297 249.811C65.4297 265.972 65.9531 268.196 70.6641 272.842C76.2256 278.469 68.7012 278.076 167.5 278.076C266.299 278.076 258.774 278.469 264.336 272.842C269.047 268.196 269.57 265.972 269.57 249.811V236.201H283.311H297.051V262.046C297.051 286.778 296.985 288.021 295.677 291.62C293.714 296.854 288.283 302.22 283.114 304.183L279.319 305.557L166.322 305.426L53.3252 305.229L50.0537 303.463C45.4736 301.107 41.0898 296.135 39.3232 291.62C38.0146 288.021 37.9492 286.844 37.9492 262.046V236.201H51.6894H65.4297V249.811Z" fill="white"/>
</svg>
