<?xml version="1.0" standalone="no"?>
<!DOCTYPE svg PUBLIC "-//W3C//DTD SVG 20010904//EN"
 "http://www.w3.org/TR/2001/REC-SVG-20010904/DTD/svg10.dtd">
<svg version="1.0" xmlns="http://www.w3.org/2000/svg"
 width="512.000000pt" height="512.000000pt" viewBox="0 0 512.000000 512.000000"
 preserveAspectRatio="xMidYMid meet">

<g transform="translate(0.000000,512.000000) scale(0.100000,-0.100000)"
fill="#000000" stroke="none">
<path d="M2070 4790 c-20 -20 -20 -33 -20 -975 l0 -955 -376 -2 -377 -3 -20
-26 c-15 -21 -17 -33 -11 -52 11 -30 1238 -1473 1266 -1488 11 -6 31 -8 44 -5
26 7 1263 1452 1278 1493 6 19 4 32 -11 52 l-20 26 -397 3 -396 2 0 953 c0
945 0 953 -20 975 l-21 22 -449 0 c-437 0 -451 -1 -470 -20z m820 -1069 c0
-919 1 -950 19 -972 l19 -24 351 -5 350 -5 -530 -622 c-292 -343 -534 -623
-539 -623 -5 0 -247 280 -539 623 l-530 622 330 5 331 5 19 24 c18 22 19 53
19 972 l0 949 350 0 350 0 0 -949z"/>
<path d="M460 1630 c-19 -19 -20 -33 -20 -467 0 -347 3 -460 14 -499 44 -166
173 -295 341 -340 75 -20 3456 -20 3532 0 164 44 295 175 339 340 11 39 14
152 14 499 0 434 -1 448 -20 467 -19 19 -33 20 -329 20 l-310 0 -20 -26 c-20
-25 -21 -39 -21 -271 0 -270 -3 -287 -63 -323 -31 -20 -60 -20 -1355 -20
-1461 0 -1361 -4 -1402 63 -18 29 -20 52 -20 278 0 234 -1 248 -21 273 l-20
26 -310 0 c-296 0 -310 -1 -329 -20z m540 -328 c0 -247 8 -281 80 -352 85 -86
-30 -80 1480 -80 1510 0 1395 -6 1480 80 72 71 80 105 80 352 l0 208 210 0
210 0 0 -395 c0 -378 -1 -397 -21 -452 -30 -80 -113 -162 -192 -192 l-58 -21
-1727 2 -1727 3 -50 27 c-70 36 -137 112 -164 181 -20 55 -21 73 -21 452 l0
395 210 0 210 0 0 -208z"/>
</g>
</svg>
