<svg version="1.2" xmlns="http://www.w3.org/2000/svg" xmlns:xlink="http://www.w3.org/1999/xlink" overflow="visible" preserveAspectRatio="none" viewBox="0 0 17.000000000000004 10.8" width="17.000000000000004" height="10.8"><g transform="translate(0, 0)"><g transform="translate(1.9984014443252818e-15, 0) rotate(0)"><path d="M16.79762,5.16c-0.13492,-0.24 -3.74405,-5.16 -8.29762,-5.16c-4.55357,0 -8.1627,4.92 -8.29762,5.16l-0.20238,0.24l0.20238,0.24c0.13492,0.24 3.74405,5.16 8.29762,5.16c4.55357,0 8.1627,-4.92 8.29762,-5.16l0.20238,-0.24zM8.5,10c-3.67659,0 -6.77976,-3.6 -7.58929,-4.6c0.80952,-1 3.9127,-4.6 7.58929,-4.6c3.64286,0 6.77976,3.6 7.58929,4.6c-0.80952,1 -3.94643,4.6 -7.58929,4.6zM8.5,2.72c-1.24802,0 -2.25992,1.2 -2.25992,2.68c0,1.48 1.0119,2.68 2.25992,2.68c1.24802,0 2.25992,-1.2 2.25992,-2.68c0,-1.48 -1.0119,-2.68 -2.25992,-2.68zM8.5,7.28c-0.87698,0 -1.58532,-0.84 -1.58532,-1.88c0,-1.04 0.70833,-1.88 1.58532,-1.88c0.87698,0 1.58532,0.84 1.58532,1.88c0,1.04 -0.70833,1.88 -1.58532,1.88z" style="stroke-width: 0; stroke-linecap: butt; stroke-linejoin: miter; fill: rgb(255, 255, 255);" vector-effect="non-scaling-stroke"/></g><defs><path id="path-1653551455011137907" d="M16.79762,5.16c-0.13492,-0.24 -3.74405,-5.16 -8.29762,-5.16c-4.55357,0 -8.1627,4.92 -8.29762,5.16l-0.20238,0.24l0.20238,0.24c0.13492,0.24 3.74405,5.16 8.29762,5.16c4.55357,0 8.1627,-4.92 8.29762,-5.16l0.20238,-0.24zM8.5,10c-3.67659,0 -6.77976,-3.6 -7.58929,-4.6c0.80952,-1 3.9127,-4.6 7.58929,-4.6c3.64286,0 6.77976,3.6 7.58929,4.6c-0.80952,1 -3.94643,4.6 -7.58929,4.6zM8.5,2.72c-1.24802,0 -2.25992,1.2 -2.25992,2.68c0,1.48 1.0119,2.68 2.25992,2.68c1.24802,0 2.25992,-1.2 2.25992,-2.68c0,-1.48 -1.0119,-2.68 -2.25992,-2.68zM8.5,7.28c-0.87698,0 -1.58532,-0.84 -1.58532,-1.88c0,-1.04 0.70833,-1.88 1.58532,-1.88c0.87698,0 1.58532,0.84 1.58532,1.88c0,1.04 -0.70833,1.88 -1.58532,1.88z" vector-effect="non-scaling-stroke"/></defs></g></svg>