<svg version="1.2" xmlns="http://www.w3.org/2000/svg" xmlns:xlink="http://www.w3.org/1999/xlink" overflow="visible" preserveAspectRatio="none" viewBox="0 0 26.999989999999997 30" width="26.999989999999997" height="30"><g transform="translate(0, 0)"><g transform="translate(3.552713678800501e-15, 0) rotate(0)"><path d="M23.14286,9.76364v-5.4h-3.85714v1.52727l-5.84082,-5.89091l-13.4449,13.63636h1.65306l1.10204,-1.14545v17.50909h12.12245v0h6.61224v0h2.7551v-17.45455l1.10204,1.14545h1.65306zM20.38776,5.45455h1.65306v3.21818l-1.65306,-1.63636zM20.38776,28.90909h-3.80204v0h-0.60612v-7.63636h4.40816zM23.14286,28.90909h-1.65306v-8.72727h-6.61224v8.72727h-11.02041v-17.50909l9.58776,-9.81818l9.69796,9.81818zM4.95918,26.72727h8.26531v-6.54545h-8.26531zM6.06122,21.27273h6.06122v4.36364h-6.06122zM7.16327,10.90909v3.27273h-2.20408v4.36364h16.53061v-4.36364h-2.20408v-3.27273zM7.16327,17.45455h-1.10204v-2.18182h1.10204zM9.36735,17.45455h-1.10204v-2.18182h1.10204zM11.57143,17.45455h-1.10204v-2.18182h1.10204zM13.77551,17.45455h-1.10204v-2.18182h1.10204zM15.97959,17.45455h-1.10204v-2.18182h1.10204zM18.18367,17.45455h-1.10204v-2.18182h1.10204zM18.18367,14.18182h-9.91837v-2.18182h9.91837zM20.38776,15.27273v2.18182h-1.10204v-2.18182z" style="stroke-width: 0; stroke-linecap: butt; stroke-linejoin: miter; fill: rgb(255, 255, 255);" vector-effect="non-scaling-stroke"/></g><defs><path id="path-175174112800613867" d="M23.14286,9.76364v-5.4h-3.85714v1.52727l-5.84082,-5.89091l-13.4449,13.63636h1.65306l1.10204,-1.14545v17.50909h12.12245v0h6.61224v0h2.7551v-17.45455l1.10204,1.14545h1.65306zM20.38776,5.45455h1.65306v3.21818l-1.65306,-1.63636zM20.38776,28.90909h-3.80204v0h-0.60612v-7.63636h4.40816zM23.14286,28.90909h-1.65306v-8.72727h-6.61224v8.72727h-11.02041v-17.50909l9.58776,-9.81818l9.69796,9.81818zM4.95918,26.72727h8.26531v-6.54545h-8.26531zM6.06122,21.27273h6.06122v4.36364h-6.06122zM7.16327,10.90909v3.27273h-2.20408v4.36364h16.53061v-4.36364h-2.20408v-3.27273zM7.16327,17.45455h-1.10204v-2.18182h1.10204zM9.36735,17.45455h-1.10204v-2.18182h1.10204zM11.57143,17.45455h-1.10204v-2.18182h1.10204zM13.77551,17.45455h-1.10204v-2.18182h1.10204zM15.97959,17.45455h-1.10204v-2.18182h1.10204zM18.18367,17.45455h-1.10204v-2.18182h1.10204zM18.18367,14.18182h-9.91837v-2.18182h9.91837zM20.38776,15.27273v2.18182h-1.10204v-2.18182z" vector-effect="non-scaling-stroke"/></defs></g></svg>