<svg version="1.2" xmlns="http://www.w3.org/2000/svg" xmlns:xlink="http://www.w3.org/1999/xlink" overflow="visible" preserveAspectRatio="none" viewBox="0 0 47 47" width="18" height="19"><g><g xmlns:default="http://www.w3.org/2000/svg">
	<g>
		<path d="M44,0H3C1.3,0,0,1.3,0,3v41c0,1.7,1.3,3,3,3h41c1.7,0,3-1.3,3-3V3C47,1.3,45.7,0,44,0z M45,44c0,0.6-0.4,1-1,1H3    c-0.6,0-1-0.4-1-1V3c0-0.6,0.4-1,1-1h41c0.6,0,1,0.4,1,1V44z M39,28c-0.6,0-1,0.4-1,1v7.6l-9.9-9.9c-0.4-0.4-1-0.4-1.4,0    s-0.4,1,0,1.4l9.8,9.8H29c-0.6,0-1,0.4-1,1c0,0.6,0.4,1,1,1h10c0.6,0,1-0.4,1-1V29C40,28.4,39.6,28,39,28z M9.4,8H17    c0.6,0,1-0.4,1-1c0-0.6-0.4-1-1-1H7C6.4,6,6,6.4,6,7v10c0,0.6,0.4,1,1,1s1-0.4,1-1V9.4l10.3,10.3c0.2,0.2,0.5,0.3,0.7,0.3    s0.5-0.1,0.7-0.3c0.4-0.4,0.4-1,0-1.4L9.4,8z" style="fill: rgb(255, 255, 255);" vector-effect="non-scaling-stroke"/>
	</g>
</g></g></svg>